<svg width="115" height="44" viewBox="0 0 115 44" fill="none" xmlns="http://www.w3.org/2000/svg">
<path d="M1.77344 5.85156H113.003" stroke="white" stroke-width="4"/>
<path d="M0.754958 20.951C0.754958 20.0368 0.929574 19.1792 1.27881 18.378C1.62804 17.5768 2.10053 16.8783 2.69628 16.2826C3.3023 15.6766 4.0059 15.1989 4.80708 14.8497C5.60826 14.5005 6.46593 14.3259 7.3801 14.3259H17.5181V18.7477H7.3801C7.07195 18.7477 6.78435 18.8042 6.51729 18.9172C6.25023 19.0302 6.01398 19.1894 5.80855 19.3949C5.61339 19.59 5.45932 19.8211 5.34633 20.0882C5.23335 20.3552 5.17685 20.6428 5.17685 20.951C5.17685 21.2591 5.23335 21.5519 5.34633 21.8292C5.45932 22.0963 5.61339 22.3325 5.80855 22.5379C6.01398 22.7331 6.25023 22.8872 6.51729 23.0002C6.78435 23.1131 7.07195 23.1696 7.3801 23.1696H11.802C12.7162 23.1696 13.5738 23.3443 14.375 23.6935C15.1865 24.0325 15.8901 24.5049 16.4858 25.111C17.0918 25.7067 17.5643 26.4103 17.9033 27.2218C18.2525 28.0229 18.4271 28.8806 18.4271 29.7948C18.4271 30.7089 18.2525 31.5666 17.9033 32.3678C17.5643 33.169 17.0918 33.8726 16.4858 34.4786C15.8901 35.0744 15.1865 35.5468 14.375 35.8961C13.5738 36.2453 12.7162 36.4199 11.802 36.4199H1.98754V31.998H11.802C12.1101 31.998 12.3977 31.9415 12.6648 31.8285C12.9319 31.7156 13.163 31.5615 13.3581 31.3663C13.5636 31.1609 13.7228 30.9247 13.8358 30.6576C13.9487 30.3905 14.0052 30.1029 14.0052 29.7948C14.0052 29.4866 13.9487 29.199 13.8358 28.932C13.7228 28.6649 13.5636 28.4338 13.3581 28.2386C13.163 28.0332 12.9319 27.874 12.6648 27.761C12.3977 27.648 12.1101 27.5915 11.802 27.5915H7.3801C6.46593 27.5915 5.60826 27.4169 4.80708 27.0677C4.0059 26.7185 3.3023 26.246 2.69628 25.6502C2.10053 25.0442 1.62804 24.3406 1.27881 23.5394C0.929574 22.728 0.754958 21.8652 0.754958 20.951ZM31.8839 36.4199H27.4774V18.7477H20.8368V14.3259H38.509V18.7477H31.8839V36.4199ZM57.574 36.4199H42.4286V14.3259H57.574V18.7477H46.8505V23.1696H54.1074V27.5915H46.8505V31.998H57.574V36.4199ZM77.7175 36.4199H62.2486V14.3259H66.6705V31.998H77.7175V36.4199ZM86.0282 36.4199H81.6063V14.3259H86.0282V36.4199ZM113.367 25.4653C113.367 26.513 113.228 27.5248 112.951 28.5006C112.684 29.4661 112.304 30.3751 111.811 31.2277C111.318 32.0699 110.722 32.8403 110.024 33.5388C109.325 34.2372 108.555 34.8381 107.712 35.3414C106.87 35.8344 105.961 36.2145 104.985 36.4816C104.01 36.7589 102.998 36.8975 101.95 36.8975C100.902 36.8975 99.8907 36.7589 98.9149 36.4816C97.9494 36.2145 97.0403 35.8344 96.1878 35.3414C95.3455 34.8381 94.5752 34.2372 93.8767 33.5388C93.1782 32.8403 92.5773 32.0699 92.074 31.2277C91.581 30.3751 91.1958 29.4661 90.9185 28.5006C90.6514 27.5248 90.5179 26.513 90.5179 25.4653C90.5179 24.4176 90.6514 23.4059 90.9185 22.4301C91.1958 21.4543 91.581 20.5453 92.074 19.703C92.5773 18.8607 93.1782 18.0904 93.8767 17.3919C94.5752 16.6934 95.3455 16.0977 96.1878 15.6047C97.0403 15.1116 97.9494 14.7316 98.9149 14.4645C99.8907 14.1872 100.902 14.0485 101.95 14.0485C102.998 14.0485 104.01 14.1872 104.985 14.4645C105.961 14.7316 106.87 15.1116 107.712 15.6047C108.555 16.0977 109.325 16.6934 110.024 17.3919C110.722 18.0904 111.318 18.8607 111.811 19.703C112.304 20.5453 112.684 21.4543 112.951 22.4301C113.228 23.4059 113.367 24.4176 113.367 25.4653ZM108.976 25.4653C108.976 24.4998 108.791 23.5908 108.421 22.7382C108.051 21.8754 107.548 21.1307 106.911 20.5042C106.285 19.8673 105.54 19.364 104.677 18.9943C103.825 18.6245 102.916 18.4396 101.95 18.4396C100.974 18.4396 100.06 18.6245 99.2076 18.9943C98.3551 19.364 97.6104 19.8673 96.9736 20.5042C96.3367 21.1307 95.8334 21.8754 95.4636 22.7382C95.0939 23.5908 94.909 24.4998 94.909 25.4653C94.909 26.4309 95.0939 27.3399 95.4636 28.1924C95.8334 29.0347 96.3367 29.7742 96.9736 30.4111C97.6104 31.0479 98.3551 31.5512 99.2076 31.921C100.06 32.2908 100.974 32.4757 101.95 32.4757C102.916 32.4757 103.825 32.2908 104.677 31.921C105.54 31.5512 106.285 31.0479 106.911 30.4111C107.548 29.7742 108.051 29.0347 108.421 28.1924C108.791 27.3399 108.976 26.4309 108.976 25.4653Z" fill="white"/>
</svg>
