<svg width="115" height="45" viewBox="0 0 115 45" fill="none" xmlns="http://www.w3.org/2000/svg">
<path d="M1.77344 5.43201H113.003" stroke="black" stroke-width="4"/>
<path d="M0.754958 18.5311C0.754958 17.6169 0.929574 16.7592 1.27881 15.958C1.62804 15.1569 2.10053 14.4584 2.69628 13.8627C3.3023 13.2566 4.0059 12.779 4.80708 12.4298C5.60826 12.0805 6.46593 11.9059 7.3801 11.9059H17.5181V16.3278H7.3801C7.07195 16.3278 6.78435 16.3843 6.51729 16.4973C6.25023 16.6103 6.01398 16.7695 5.80855 16.9749C5.61339 17.1701 5.45932 17.4012 5.34633 17.6683C5.23335 17.9353 5.17685 18.2229 5.17685 18.5311C5.17685 18.8392 5.23335 19.132 5.34633 19.4093C5.45932 19.6763 5.61339 19.9126 5.80855 20.118C6.01398 20.3132 6.25023 20.4673 6.51729 20.5802C6.78435 20.6932 7.07195 20.7497 7.3801 20.7497H11.802C12.7162 20.7497 13.5738 20.9243 14.375 21.2736C15.1865 21.6125 15.8901 22.085 16.4858 22.691C17.0918 23.2868 17.5643 23.9904 17.9033 24.8018C18.2525 25.603 18.4271 26.4607 18.4271 27.3749C18.4271 28.289 18.2525 29.1467 17.9033 29.9479C17.5643 30.7491 17.0918 31.4527 16.4858 32.0587C15.8901 32.6544 15.1865 33.1269 14.375 33.4762C13.5738 33.8254 12.7162 34 11.802 34H1.98754V29.5781H11.802C12.1101 29.5781 12.3977 29.5216 12.6648 29.4086C12.9319 29.2956 13.163 29.1416 13.3581 28.9464C13.5636 28.741 13.7228 28.5047 13.8358 28.2377C13.9487 27.9706 14.0052 27.683 14.0052 27.3749C14.0052 27.0667 13.9487 26.7791 13.8358 26.5121C13.7228 26.245 13.5636 26.0139 13.3581 25.8187C13.163 25.6133 12.9319 25.4541 12.6648 25.3411C12.3977 25.2281 12.1101 25.1716 11.802 25.1716H7.3801C6.46593 25.1716 5.60826 24.997 4.80708 24.6478C4.0059 24.2985 3.3023 23.826 2.69628 23.2303C2.10053 22.6243 1.62804 21.9207 1.27881 21.1195C0.929574 20.308 0.754958 19.4452 0.754958 18.5311ZM31.8839 34H27.4774V16.3278H20.8368V11.9059H38.509V16.3278H31.8839V34ZM57.574 34H42.4286V11.9059H57.574V16.3278H46.8505V20.7497H54.1074V25.1716H46.8505V29.5781H57.574V34ZM77.7175 34H62.2486V11.9059H66.6705V29.5781H77.7175V34ZM86.0282 34H81.6063V11.9059H86.0282V34ZM113.367 23.0454C113.367 24.0931 113.228 25.1049 112.951 26.0806C112.684 27.0462 112.304 27.9552 111.811 28.8077C111.318 29.65 110.722 30.4204 110.024 31.1188C109.325 31.8173 108.555 32.4182 107.712 32.9215C106.87 33.4145 105.961 33.7946 104.985 34.0616C104.01 34.339 102.998 34.4776 101.95 34.4776C100.902 34.4776 99.8907 34.339 98.9149 34.0616C97.9494 33.7946 97.0403 33.4145 96.1878 32.9215C95.3455 32.4182 94.5752 31.8173 93.8767 31.1188C93.1782 30.4204 92.5773 29.65 92.074 28.8077C91.581 27.9552 91.1958 27.0462 90.9185 26.0806C90.6514 25.1049 90.5179 24.0931 90.5179 23.0454C90.5179 21.9977 90.6514 20.986 90.9185 20.0102C91.1958 19.0344 91.581 18.1253 92.074 17.2831C92.5773 16.4408 93.1782 15.6704 93.8767 14.972C94.5752 14.2735 95.3455 13.6778 96.1878 13.1847C97.0403 12.6917 97.9494 12.3117 98.9149 12.0446C99.8907 11.7673 100.902 11.6286 101.95 11.6286C102.998 11.6286 104.01 11.7673 104.985 12.0446C105.961 12.3117 106.87 12.6917 107.712 13.1847C108.555 13.6778 109.325 14.2735 110.024 14.972C110.722 15.6704 111.318 16.4408 111.811 17.2831C112.304 18.1253 112.684 19.0344 112.951 20.0102C113.228 20.986 113.367 21.9977 113.367 23.0454ZM108.976 23.0454C108.976 22.0799 108.791 21.1709 108.421 20.3183C108.051 19.4555 107.548 18.7108 106.911 18.0843C106.285 17.4474 105.54 16.9441 104.677 16.5743C103.825 16.2046 102.916 16.0197 101.95 16.0197C100.974 16.0197 100.06 16.2046 99.2076 16.5743C98.3551 16.9441 97.6104 17.4474 96.9736 18.0843C96.3367 18.7108 95.8334 19.4555 95.4636 20.3183C95.0939 21.1709 94.909 22.0799 94.909 23.0454C94.909 24.0109 95.0939 24.92 95.4636 25.7725C95.8334 26.6148 96.3367 27.3543 96.9736 27.9912C97.6104 28.628 98.3551 29.1313 99.2076 29.5011C100.06 29.8708 100.974 30.0557 101.95 30.0557C102.916 30.0557 103.825 29.8708 104.677 29.5011C105.54 29.1313 106.285 28.628 106.911 27.9912C107.548 27.3543 108.051 26.6148 108.421 25.7725C108.791 24.92 108.976 24.0109 108.976 23.0454Z" fill="black"/>
</svg>
