<svg width="639" height="639" viewBox="0 0 639 639" fill="none" xmlns="http://www.w3.org/2000/svg">
<rect width="639" height="639" rx="319.5" fill="#7B519D"/>
<path d="M322.497 132.105C296.541 132.105 217.553 132.105 173.885 171.978C147.88 197.884 135.625 235.318 135.625 289.471V318.977C135.625 373.131 147.88 410.564 174.189 436.765C187.29 448.715 205.151 458.265 226.986 464.865L233.979 466.97V519.372C233.979 525.52 235.759 525.52 236.349 525.52C237.559 525.52 239.496 525.136 243.175 521.871C244.06 520.995 250.551 513.973 282.123 478.605L285.309 475.035L290.079 475.34C300.652 475.999 311.56 476.343 322.497 476.343C348.452 476.343 427.44 476.343 471.109 436.46C497.104 410.554 509.368 373.121 509.368 318.977V289.471C509.368 235.318 497.114 197.884 470.804 171.683C427.44 132.105 348.452 132.105 322.497 132.105Z" fill="#7B519D"/>
<path d="M415.454 366.718C404.527 357.512 399.481 354.729 384.394 345.67C378.109 341.903 368.529 338.648 363.504 338.648C360.071 338.648 355.96 341.274 353.442 343.792C346.99 350.244 344.875 358.318 333.565 358.318C322.5 358.318 303.173 347.057 289.306 332.501C274.749 318.633 263.488 299.306 263.488 288.242C263.488 276.931 271.415 274.669 277.867 268.207C280.385 265.699 283.159 261.588 283.159 258.155C283.159 253.129 279.903 243.697 276.136 237.412C267.078 222.315 264.304 217.27 255.088 206.352C251.971 202.654 248.42 200.963 244.702 200.953C238.418 200.943 230.166 204.061 224.579 208.221C216.18 214.486 207.397 223.013 205.046 233.636C204.731 235.081 204.545 236.537 204.486 237.993C204.033 249.057 208.38 260.289 213.072 269.8C224.117 292.215 238.732 313.912 254.636 333.287C259.721 339.484 265.258 345.247 270.992 350.814C276.559 356.538 282.323 362.076 288.519 367.17C307.894 383.074 329.591 397.689 352.006 408.734C361.428 413.377 372.523 417.645 383.479 417.331C385.043 417.281 386.607 417.104 388.171 416.76C398.793 414.419 407.32 405.626 413.585 397.227C417.746 391.641 420.863 383.399 420.853 377.104C420.844 373.386 419.152 369.836 415.454 366.718ZM420.853 318.977C415.424 318.977 411.018 314.571 411.018 309.142V299.306C411.018 250.503 371.303 210.788 322.5 210.788C317.071 210.788 312.665 206.382 312.665 200.953C312.665 195.524 317.071 191.117 322.5 191.117C382.151 191.117 430.689 239.655 430.689 299.306V309.142C430.689 314.571 426.283 318.977 420.853 318.977ZM360.445 299.306C356.078 299.306 352.085 296.375 350.934 291.949C348.239 281.613 340.174 273.538 329.876 270.882C324.615 269.515 321.457 264.155 322.815 258.893C324.172 253.641 329.522 250.484 334.804 251.831C351.996 256.286 365.471 269.751 369.965 286.983C371.332 292.245 368.185 297.605 362.933 298.982C362.097 299.198 361.261 299.306 360.445 299.306Z" fill="white"/>
<path d="M391.346 309.142C385.917 309.142 381.511 304.736 381.511 299.306C381.511 267.951 356.982 242.084 325.666 240.432C320.237 240.147 316.076 235.514 316.361 230.095C316.647 224.666 321.358 220.496 326.698 220.791C368.469 222.994 401.182 257.487 401.182 299.306C401.182 304.736 396.775 309.142 391.346 309.142Z" fill="white"/>
<path d="M322.497 122.27C278.238 122.27 209.273 126.342 167.256 164.72C137.553 194.295 125.79 235.78 125.79 289.471C125.79 293.917 125.77 298.874 125.81 304.224C125.77 309.565 125.79 314.522 125.79 318.967C125.79 372.659 137.553 414.144 167.256 443.719C183.248 458.325 203.194 467.934 224.144 474.268V519.373C224.144 535.07 234.461 535.355 236.349 535.355H236.438C241.296 535.335 245.496 532.955 249.706 529.218C251.289 527.811 269.573 507.432 289.46 485.146C301.302 485.903 312.554 486.178 322.487 486.178C366.746 486.178 435.702 482.097 477.728 443.719C507.421 414.154 519.194 372.659 519.194 318.967C519.194 314.522 519.214 309.565 519.175 304.214C519.214 298.864 519.194 293.917 519.194 289.461C519.194 235.77 507.431 194.285 477.728 164.71C435.712 126.342 366.756 122.27 322.497 122.27ZM489.698 315.545V318.967C489.698 367.22 479.42 400.099 457.379 422.357C419.198 456.672 346.466 456.672 322.487 456.672C315.189 456.672 303.348 456.662 289.372 455.689C285.487 460.056 243.814 506.665 243.814 506.665V449.001C223.121 444.034 202.673 435.89 187.615 422.367C165.574 400.099 155.296 367.22 155.296 318.967V315.545C155.296 312.093 155.286 308.365 155.316 304.008C155.286 300.074 155.286 296.356 155.296 292.894V289.471C155.296 241.219 165.574 208.339 187.615 186.082C225.786 151.766 298.528 151.766 322.497 151.766C346.466 151.766 419.198 151.766 457.369 186.082C479.42 208.339 489.688 241.219 489.688 289.471V292.894C489.688 296.346 489.698 300.074 489.669 304.431C489.698 308.375 489.698 312.093 489.698 315.545Z" fill="white"/>
</svg>
