<svg width="57" height="57" viewBox="0 0 57 57" fill="none" xmlns="http://www.w3.org/2000/svg">
<g clip-path="url(#clip0_516_55)">
<path d="M27.9943 43.593C23.2638 43.7602 15.7528 41.7243 15.7398 37.0379C15.7464 30.3515 15.7234 21.6068 15.748 14.912C16.4791 6.20298 39.7262 6.23067 40.1819 15.0628V15.2513C47.5745 14.4334 54.9592 21.2869 54.6609 28.7156C55.0723 37.3886 45.2124 44.5714 37.0611 41.5375V41.5358C34.2712 43.0045 31.1451 43.7143 27.9949 43.593L27.9943 43.593ZM18.3608 33.8777V36.9676C19.382 41.667 30.5562 41.4899 34.0005 40.1148L34.0021 40.1164C32.4121 39.1395 31.0499 37.8347 30.0074 36.2873C25.9685 36.7315 21.8916 35.8873 18.3608 33.8777ZM37.3869 38.8591C43.9437 41.7523 52.4215 35.8479 52.0379 28.7225C52.1494 19.3597 40.454 14.2486 33.7282 20.8347C27.9712 25.9932 30.0188 36.3955 37.3869 38.8591ZM18.9101 30.9533C20.8411 32.8727 24.9209 33.8759 28.6846 33.7546C28.0896 32.2646 27.7601 30.6828 27.706 29.0795C24.4195 29.1221 21.1837 28.2534 18.3608 26.5699V29.8122C18.4002 30.2467 18.5954 30.6516 18.9101 30.9533ZM20.7395 24.9261C22.9802 25.9539 25.4192 26.4768 27.8862 26.4554C28.1665 24.7802 28.7632 23.1754 29.6451 21.7233C25.6323 22.0167 20.7623 21.084 18.3607 19.3071V22.5428C18.5296 23.7067 19.6772 24.3392 20.7395 24.9261ZM27.2601 19.1234C28.8862 19.1808 30.5139 19.0415 32.1056 18.7087C33.6186 17.3531 35.4184 16.3565 37.3707 15.7959C38.3362 12.8995 33.3252 11.1145 27.9601 11.0801C22.6475 11.0801 18.5381 12.8078 18.361 15.1059C19.0626 18.1352 24.0655 18.8398 27.2601 19.1234ZM41.1768 37.3858C40.7604 37.3694 40.3719 37.1678 40.1179 36.8367C39.8638 36.5039 39.772 36.0761 39.8654 35.6696H38.3508C37.6329 35.6598 37.0575 35.0762 37.0575 34.3582C37.0575 33.6419 37.6329 33.0567 38.3508 33.0469H41.1768C42.0144 33.0387 42.6849 32.3519 42.6766 31.5143C42.6668 30.6783 41.98 30.0062 41.144 30.0161C39.1327 29.9784 37.4395 28.5031 37.1248 26.5164C36.81 24.5298 37.9656 22.6037 39.8654 21.9462V21.3348C39.8753 20.9512 40.0507 20.5906 40.3457 20.3431C40.6408 20.0972 41.0276 19.9907 41.4062 20.0497C41.7865 20.107 42.1226 20.3267 42.3291 20.6496C42.5356 20.9725 42.5947 21.3709 42.4881 21.7397H44.0044C44.7223 21.7495 45.2977 22.3331 45.2977 23.0511C45.2977 23.7674 44.7223 24.3526 44.0044 24.3624H41.1768C40.3408 24.3722 39.6704 25.0574 39.6785 25.895C39.6884 26.731 40.3735 27.4014 41.2095 27.3932C43.2208 27.4309 44.9157 28.9062 45.2304 30.8929C45.5452 32.8795 44.3895 34.8056 42.4881 35.4631C42.5831 36.4171 42.2767 37.3481 41.1768 37.3858Z" fill="black" stroke="white" stroke-width="0.388852"/>
</g>
<defs>
<clipPath id="clip0_516_55">
<rect width="56.1437" height="56.1437" fill="white" transform="translate(0.8125 0.338379)"/>
</clipPath>
</defs>
</svg>
