<svg width="58" height="57" viewBox="0 0 58 57" fill="none" xmlns="http://www.w3.org/2000/svg">
<path d="M39.7556 14.4615H19.501V22.2942H39.7556V14.4615ZM38.0429 20.5819H21.2136V16.1742H38.0429V20.5819Z" fill="black"/>
<path d="M24.3692 25.209H22.6582V27.8798H19.9873V29.5925H22.6582V32.2633H24.3692V29.5925H27.0401V27.8798H24.3692V25.209Z" fill="black"/>
<path d="M25.4001 34.7238L23.5125 36.6114L21.6249 34.7238L20.4131 35.9356L22.3055 37.8232L20.4131 39.7108L21.6249 40.921L23.5125 39.0334L25.4001 40.921L26.6119 39.7108L24.7243 37.8232L26.6119 35.9356L25.4001 34.7238Z" fill="black"/>
<path d="M44.0329 24.9054V12.8771C44.0329 11.9703 43.6717 11.0987 43.0297 10.4567C42.3877 9.81463 41.5161 9.45349 40.6093 9.45349H18.5746C16.6822 9.45349 15.1494 10.9864 15.1494 12.8771V41.9838C15.1494 42.8906 15.5106 43.7622 16.1526 44.4042C16.7946 45.0462 17.6662 45.4074 18.5746 45.4074H39.0076C39.4104 45.4539 40.2916 45.4796 40.2916 45.4796C43.6254 45.4588 46.7551 43.8762 48.7488 41.2054C50.7423 38.5346 51.3699 35.085 50.4438 31.8829C49.5176 28.6807 47.1453 26.0979 44.0329 24.9054ZM49.1051 33.9276H48.3169C48.1083 32.077 47.272 30.3547 45.9478 29.0449C44.6252 27.7367 42.8934 26.9181 41.0413 26.7287V25.9487C43.1006 26.1413 45.0299 27.0418 46.5001 28.496C47.9703 29.9501 48.8916 31.8698 49.1051 33.9276ZM39.3124 25.9582V26.7447C37.4618 26.955 35.7411 27.7912 34.4313 29.1154C33.1232 30.438 32.3062 32.1699 32.1168 34.022H31.3255C31.5149 31.9594 32.4169 30.0285 33.8728 28.5582C35.3302 27.0864 37.2533 26.1684 39.3124 25.9582ZM32.1299 35.7426C32.3353 37.598 33.1748 39.3283 34.5054 40.6381C35.836 41.9494 37.5775 42.7632 39.4362 42.9414V43.7295C37.3721 43.5433 35.4347 42.646 33.9581 41.1918C32.4814 39.736 31.5568 37.8131 31.3418 35.7507L32.1299 35.7426ZM40.2629 41.2721H40.2243C37.9258 41.2785 35.7977 40.0586 34.6435 38.0715C33.4878 36.0844 33.4798 33.6334 34.6242 31.6384C35.767 29.6449 37.8873 28.4122 40.1858 28.4058H40.2243C42.5228 28.3994 44.6497 29.6192 45.8051 31.6064C46.9592 33.5934 46.9672 36.0445 45.8244 38.0394C44.68 40.033 42.5613 41.2657 40.2629 41.2721ZM18.5751 43.6941C17.6297 43.6941 16.8624 42.9285 16.8624 41.9831V12.8765C16.8624 11.9311 17.6297 11.1654 18.5751 11.1654H40.6097C41.0639 11.1654 41.4989 11.3452 41.8199 11.6662C42.1409 11.9873 42.3207 12.4222 42.3207 12.8765V24.4043C41.6305 24.2679 40.9275 24.1989 40.2244 24.1989H40.1602C37.101 24.2149 34.1956 25.5488 32.1896 27.8584C30.1832 30.1682 29.2683 33.2306 29.6792 36.2626C30.0901 39.293 31.7851 42.0025 34.3339 43.6942L18.5751 43.6941ZM46.576 41.126C45.1266 42.5994 43.2053 43.5176 41.1492 43.7198V42.9333C42.9982 42.723 44.7205 41.8868 46.0286 40.5626C47.3384 39.24 48.1538 37.5081 48.3432 35.656H49.1361C48.9483 37.7234 48.043 39.6592 46.576 41.126Z" fill="black"/>
<path d="M40.9 33.9794H39.5389C39.4073 33.9794 39.2805 33.9345 39.1793 33.851C39.083 33.7563 39.0285 33.6263 39.0301 33.4915C39.0349 33.217 39.2564 32.9971 39.5309 32.9955L42.9545 32.9746V31.262H41.4216V30.4274H39.709V31.2829H39.5212C38.2965 31.2925 37.311 32.2925 37.3174 33.5171C37.327 34.7354 38.3158 35.7193 39.534 35.7209H40.8951C41.1584 35.745 41.359 35.9649 41.359 36.2282C41.359 36.4914 41.1584 36.7113 40.8951 36.7354H37.4715V38.448H39.6801V39.3035H41.3927V38.3453C42.1712 38.1527 42.7843 37.5556 42.9978 36.7819C43.2097 36.0083 42.9898 35.1817 42.42 34.6167C42.0091 34.2234 41.4682 33.9955 40.9 33.9794Z" fill="black"/>
</svg>
