<svg width="57" height="57" viewBox="0 0 57 57" fill="none" xmlns="http://www.w3.org/2000/svg">
<g clip-path="url(#clip0_516_61)">
<path d="M42.1254 35.0549C41.6107 35.0549 41.1922 35.4734 41.1922 35.9881V39.4264C41.1922 39.6524 41.1018 39.8697 40.94 40.0286C40.7781 40.1876 40.5594 40.275 40.3334 40.2707H18.8885C18.4248 40.2678 18.05 39.893 18.0486 39.4308V18.5458H23.7938C25.0303 18.5458 26.0335 17.5426 26.0335 16.3061V10.5567H40.3338C40.7974 10.5567 41.1736 10.9329 41.1736 11.3966V16.2494C41.1736 16.7655 41.5921 17.1826 42.1069 17.1826C42.623 17.1826 43.0401 16.7655 43.0401 16.2494V11.3966C43.0386 9.90349 41.8284 8.69322 40.3338 8.69031H25.907C25.1458 8.68885 24.4153 8.99069 23.8802 9.53021L17.0225 16.3878C16.483 16.9244 16.1797 17.6535 16.1826 18.4147V39.431C16.1841 40.9242 17.3958 42.1345 18.889 42.1374H40.3339C41.8299 42.1344 43.0416 40.9227 43.0446 39.4267V35.9884C43.0446 35.4795 42.6348 35.0639 42.1259 35.0552L42.1254 35.0549ZM24.1696 11.8776V16.3017C24.1696 16.4009 24.1303 16.4957 24.0603 16.5657C23.9903 16.6357 23.8955 16.675 23.7964 16.675H19.355L24.1696 11.8776Z" fill="black"/>
<path d="M49.4875 16.5529C48.5689 15.6357 47.0815 15.6357 46.1614 16.5529L31.1441 31.5661C31.0056 31.7075 30.9137 31.8883 30.8831 32.0851L30.1365 37.0693V37.0678C30.0957 37.3376 30.1745 37.6117 30.3509 37.8173C30.5288 38.0243 30.7869 38.1439 31.0595 38.1439H31.201L36.1545 37.3594C36.3513 37.3288 36.5321 37.2384 36.6736 37.0984L51.7013 22.0957C52.1431 21.6553 52.391 21.056 52.391 20.4334C52.391 19.8093 52.1432 19.2115 51.7013 18.7696L49.4875 16.5529ZM50.3828 20.7744L35.5868 35.5718L32.1631 36.0938L32.6851 32.67L47.4795 17.87C47.5699 17.7796 47.6939 17.7286 47.8237 17.7286C47.952 17.7286 48.0759 17.7796 48.1663 17.87L50.3798 20.0878C50.4717 20.1782 50.5227 20.3022 50.5227 20.4305C50.5227 20.5603 50.4717 20.6828 50.3798 20.7746L50.3828 20.7744Z" fill="black"/>
<path d="M37.4408 17.0295C37.4408 16.7831 37.3431 16.5454 37.1681 16.3704C36.9931 16.1955 36.7554 16.0963 36.5076 16.0963H30.401C29.8863 16.0963 29.4678 16.5148 29.4678 17.0295C29.4678 17.5457 29.8863 17.9627 30.401 17.9627H36.5076C36.7555 17.9627 36.9931 17.865 37.1681 17.6901C37.3431 17.5151 37.4408 17.2774 37.4408 17.0295Z" fill="black"/>
<path d="M36.8984 22.289C36.8984 22.0426 36.8007 21.8049 36.6257 21.63C36.4507 21.455 36.213 21.3558 35.9652 21.3558H22.5123C21.9961 21.3558 21.5791 21.7743 21.5791 22.289C21.5791 22.8052 21.9961 23.2223 22.5123 23.2223H35.9726C36.4859 23.2179 36.8984 22.8023 36.8984 22.289Z" fill="black"/>
<path d="M31.3588 27.5456C31.3588 27.2977 31.2611 27.0601 31.0861 26.8851C30.9097 26.7101 30.6735 26.6124 30.4256 26.6124H22.5123C21.9961 26.6124 21.5791 27.0295 21.5791 27.5456C21.5791 28.0604 21.9961 28.4789 22.5123 28.4789H30.4256C30.6735 28.4789 30.9097 28.3797 31.0861 28.2047C31.2611 28.0297 31.3588 27.792 31.3588 27.5456Z" fill="black"/>
<path d="M22.5123 31.8719C21.9961 31.8719 21.5791 32.289 21.5791 32.8052C21.5791 33.3199 21.9961 33.7384 22.5123 33.7384H27.7936C28.3097 33.7384 28.7268 33.3199 28.7268 32.8052C28.7268 32.289 28.3097 31.8719 27.7936 31.8719H22.5123Z" fill="black"/>
</g>
<defs>
<clipPath id="clip0_516_61">
<rect width="37.3286" height="37.3286" fill="white" transform="translate(15.624 6.74951)"/>
</clipPath>
</defs>
</svg>
