<svg width="57" height="57" viewBox="0 0 57 57" fill="none" xmlns="http://www.w3.org/2000/svg">
<path d="M21.101 48.007C21.2611 48.4215 21.6471 48.7023 22.0901 48.7263H22.1581C22.577 48.7263 22.963 48.4917 23.1559 48.1189L27.3097 39.9668L31.8012 48.8027L31.8034 48.8049C31.9963 49.1777 32.3823 49.4102 32.8034 49.4102H32.8714H32.8692C33.3144 49.3839 33.7026 49.0988 33.8583 48.6799L36.4966 41.8197L43.7621 42.8416C44.2073 42.9074 44.6503 42.6991 44.885 42.3131C45.1262 41.9403 45.1262 41.4622 44.885 41.0893L39.6084 33.3522H39.6062C40.1238 33.1285 40.5756 32.7754 40.9198 32.3302C41.49 31.3389 41.7006 30.1809 41.5164 29.0515C41.4484 28.5054 41.4725 27.9528 41.5822 27.4132C41.8037 26.9351 42.0997 26.4943 42.4594 26.1105C43.2687 25.2749 43.7643 24.1828 43.863 23.0226C43.7468 21.8603 43.2248 20.7747 42.3914 19.9567C42.0361 19.5685 41.74 19.1298 41.5164 18.654C41.4045 18.1123 41.3804 17.5552 41.4484 17.0047C41.6348 15.8775 41.4199 14.7217 40.8409 13.737C40.0755 12.8817 39.036 12.3225 37.8999 12.1536C37.3648 12.0439 36.8494 11.8509 36.3735 11.5812C35.9765 11.2193 35.6388 10.8005 35.3735 10.3333C34.8603 9.29593 33.9962 8.47354 32.9369 8.0108C31.8338 7.76737 30.6802 7.92088 29.6801 8.44723C29.1626 8.6797 28.6143 8.83102 28.0529 8.89681C27.4783 8.82664 26.9169 8.66654 26.3905 8.4253C25.3905 7.89895 24.2369 7.74326 23.1337 7.98667C22.0986 8.47135 21.2652 9.30257 20.7761 10.3333C20.5152 10.8026 20.1818 11.2281 19.7871 11.5922C19.3133 11.8619 18.798 12.0549 18.2606 12.1646C17.1246 12.3356 16.0807 12.8949 15.3087 13.748C14.7385 14.7349 14.528 15.8906 14.7122 17.0157C14.7802 17.5662 14.756 18.1233 14.6442 18.6649C14.4205 19.1408 14.1244 19.5795 13.7691 19.9676C12.9204 20.7747 12.3875 21.8581 12.2646 23.0226C12.3787 24.1894 12.8985 25.2793 13.7362 26.0996C14.0937 26.4812 14.3876 26.9176 14.6113 27.3913C14.7231 27.933 14.7451 28.4901 14.6793 29.0406C14.4929 30.17 14.7034 31.328 15.2736 32.3193C15.9469 33.0978 16.8658 33.622 17.879 33.8018L12.4554 41.7736C12.2142 42.1465 12.2142 42.6267 12.4554 42.9974C12.6923 43.379 13.1353 43.583 13.5783 43.515L19.1927 42.7299L21.101 48.007ZM41.5255 40.2586L35.9112 39.4735H35.9134C35.3936 39.3968 34.8892 39.6906 34.7005 40.1797L32.6785 45.4805L28.4348 37.1819C28.8646 37.2893 29.2835 37.4275 29.6915 37.5985C30.6959 38.1139 31.8451 38.2674 32.9482 38.035C34.0009 37.5766 34.8606 36.763 35.3738 35.7344C35.637 35.2672 35.9703 34.844 36.3629 34.4755C36.6568 34.3001 36.9726 34.1685 37.306 34.0829L41.5255 40.2586ZM17.094 31.0062C16.8769 30.4184 16.8199 29.7824 16.9252 29.1662C17.0151 28.3459 16.9537 27.5147 16.7453 26.7164C16.4536 25.9664 16.0238 25.2756 15.4755 24.6856C15.0062 24.2316 14.6728 23.6549 14.5105 23.0232C14.675 22.3938 15.0084 21.8236 15.4755 21.3718C16.0216 20.7841 16.4515 20.0976 16.7453 19.3519C16.9559 18.5493 17.0173 17.7159 16.9252 16.8913C16.8199 16.2772 16.8769 15.6478 17.094 15.0622C17.5897 14.6653 18.1818 14.4109 18.8112 14.321C19.6096 14.1521 20.3705 13.8407 21.057 13.3999C21.6886 12.8867 22.2171 12.2572 22.6185 11.5467C23.022 10.9173 23.4387 10.2659 23.8642 10.1321C23.9387 10.1212 24.0155 10.1212 24.0879 10.1321C24.6208 10.2001 25.1406 10.3471 25.6275 10.5708C26.3929 10.9151 27.2153 11.1147 28.053 11.1651C28.8908 11.1147 29.711 10.9151 30.4786 10.5708C31.0181 10.2769 31.6278 10.1387 32.2419 10.1672C32.6695 10.301 33.084 10.9523 33.4876 11.5818C33.8867 12.2879 34.4109 12.9152 35.0359 13.435C35.7246 13.8714 36.4855 14.1828 37.2817 14.3539C37.9111 14.4438 38.5032 14.7004 39.0011 15.0951C39.216 15.6807 39.2752 16.3123 39.1699 16.9264C39.0778 17.7488 39.137 18.5843 39.3476 19.3848C39.6415 20.1327 40.0735 20.817 40.6174 21.4069C41.0911 21.8433 41.4376 22.4026 41.6174 23.0232C41.4529 23.6527 41.1174 24.2229 40.6502 24.6747C40.1041 25.2646 39.6743 25.9554 39.3826 26.7055C39.1721 27.5038 39.1129 28.3349 39.2028 29.1552C39.308 29.7715 39.251 30.4075 39.0339 30.9952C38.5383 31.3922 37.9439 31.6466 37.3167 31.7365C36.5184 31.901 35.7574 32.2102 35.0709 32.6466C34.4393 33.1642 33.9086 33.798 33.5095 34.5108C33.1059 35.1402 32.6893 35.7915 32.2638 35.9253C31.6497 35.945 31.0422 35.8069 30.5005 35.5218C29.7351 35.1774 28.9127 34.9757 28.0749 34.9252C27.2371 34.9757 26.4148 35.1774 25.6493 35.5218C25.1077 35.8047 24.5001 35.945 23.8861 35.9253C23.4584 35.7915 23.0439 35.1402 22.6404 34.5108C22.2368 33.8002 21.7083 33.1686 21.0789 32.6466C20.3924 32.2102 19.6315 31.901 18.8332 31.7365C18.1994 31.6553 17.5963 31.4031 17.094 31.0062ZM19.9912 34.7015C20.2675 35.0239 20.5197 35.3704 20.7434 35.7345C21.2522 36.7762 22.1163 37.6052 23.1799 38.0702C23.4738 38.1623 23.7808 38.2083 24.0879 38.2039C24.7041 38.1842 25.3116 38.057 25.8862 37.8333L22.3048 44.84L20.8991 41.1007C20.7126 40.5919 20.1885 40.2893 19.6533 40.3836L15.7013 40.9451L19.9912 34.7015Z" fill="black"/>
<path d="M26.3902 25.6395C26.8289 26.0737 27.5351 26.0737 27.9737 25.6395L31.6011 22.023C31.8138 21.8125 31.9322 21.5252 31.9322 21.2269C31.9322 20.9264 31.8138 20.6391 31.6011 20.4286C31.1624 19.9943 30.454 19.9943 30.0176 20.4286L27.1776 23.2577L26.1775 22.2577V22.2599C25.7389 21.8235 25.0305 21.8235 24.5941 22.2599C24.3814 22.4704 24.2607 22.7577 24.2607 23.056C24.2607 23.3565 24.3814 23.6438 24.5941 23.8543L26.3902 25.6395Z" fill="black"/>
<path d="M28.0653 31.883C30.4119 31.883 32.6621 30.9509 34.3203 29.2929C35.9804 27.6328 36.9125 25.3848 36.9125 23.038C36.9147 20.6913 35.9827 18.4412 34.3268 16.7807C32.6689 15.1206 30.4187 14.1863 28.0719 14.1863C25.7274 14.1841 23.4751 15.1139 21.8147 16.7698C20.1545 18.4278 19.2202 20.6757 19.2158 23.0225C19.2158 25.3714 20.1479 27.6215 21.8081 29.2837C23.4661 30.9438 25.7162 31.8786 28.0653 31.883ZM28.0653 16.4323C30.7365 16.4323 33.1446 18.042 34.1664 20.5092C35.1862 22.9787 34.6204 25.8188 32.73 27.7069C30.8395 29.593 27.9972 30.1566 25.5301 29.1302C23.0628 28.1039 21.4575 25.6936 21.4619 23.0224C21.475 19.3818 24.4246 16.4367 28.0653 16.4323Z" fill="black"/>
</svg>
