<svg width="305" height="305" viewBox="0 0 305 305" fill="none" xmlns="http://www.w3.org/2000/svg">
<g opacity="0.4" clip-path="url(#clip0_417_1329)">
<path d="M234.646 63.1574L147.787 31.3641C132.881 25.9083 116.32 33.595 110.865 48.4995L53.2873 205.801C47.8315 220.707 55.5182 237.268 70.4227 242.723L157.283 274.517C172.188 279.972 188.749 272.286 194.205 257.381L251.782 100.079C257.246 85.1772 249.551 68.6129 234.646 63.1574ZM192.828 256.89C187.649 271.039 171.93 278.334 157.781 273.155L145.947 268.813C157.032 269.008 167.544 262.26 171.569 251.266L230.546 90.1394C232.998 83.4385 232.704 76.1654 229.701 69.695C229.53 69.3269 229.087 69.1647 228.719 69.3355C228.351 69.5063 228.188 69.9495 228.359 70.3176C231.197 76.4319 231.483 83.2976 229.164 89.6335L170.177 250.787C165.389 263.867 150.83 270.631 137.741 265.84L70.9145 241.38C56.7652 236.201 49.4706 220.482 54.6494 206.333L112.227 49.0312C117.406 34.8818 133.125 27.5872 147.273 32.7661L234.133 64.5594C248.283 69.7385 255.577 85.4574 250.398 99.6061L192.828 256.89ZM204.392 82.6174L136.393 57.7277C135.924 57.556 135.465 57.4372 134.996 57.3445C134.909 57.2336 134.811 57.1488 134.681 57.101L130.857 55.7013C126.633 54.1552 121.92 56.3427 120.373 60.5665L110.407 87.7955C110.267 88.1779 110.468 88.5966 110.842 88.7334C111.225 88.8734 111.643 88.6718 111.78 88.2981L121.756 61.0425C123.026 57.5747 126.884 55.784 130.352 57.0533L131.352 57.4191C128.615 58.0831 126.227 60.0573 125.177 62.9253L115.608 89.0685C114.565 91.9191 115.114 94.9687 116.769 97.2595L115.775 96.9056C114.28 96.3584 113.014 95.2938 112.235 93.895C112.037 93.5466 111.605 93.4081 111.227 93.605C110.879 93.8028 110.74 94.235 110.937 94.6126C111.887 96.3004 113.427 97.6131 115.243 98.278L119.067 99.6778C119.198 99.7255 119.353 99.7329 119.465 99.6952C119.883 99.927 120.31 100.133 120.779 100.304L188.796 125.201C193.333 126.861 198.361 124.513 200.016 119.994L209.595 93.8239C211.281 89.2965 208.929 84.278 204.392 82.6174ZM198.668 119.473C197.284 123.254 193.093 125.199 189.313 123.815L121.311 98.9339C117.53 97.55 115.585 93.3591 116.969 89.5784L126.541 63.4264C127.925 59.6457 132.116 57.7007 135.897 59.0845L203.913 83.9807C207.694 85.3645 209.639 89.5555 208.255 93.3361L198.695 119.482L198.668 119.473ZM109.916 90.6435C109.96 90.2553 110.29 89.9722 110.662 89.9801C111.016 89.9816 111.295 90.2415 111.347 90.5856L111.331 90.6291C111.321 90.6551 111.347 90.6647 111.347 90.6647C111.357 90.7177 111.359 90.7675 111.333 90.837L111.308 90.9066C111.28 91.2513 111.035 91.5164 110.665 91.5583C110.562 91.57 110.466 91.5642 110.353 91.5229C110.284 91.4974 110.232 91.4491 110.163 91.4236C110.005 91.3166 109.896 91.1289 109.867 90.9114L109.851 90.8758C109.841 90.8228 109.849 90.7469 109.855 90.7295C109.906 90.6695 109.924 90.6759 109.916 90.6435ZM113.28 115.568L110.829 114.671C104.241 112.259 96.3146 117.301 93.1524 125.94C89.9935 134.571 92.7888 143.547 99.3767 145.959L101.828 146.856C108.416 149.267 116.342 144.225 119.504 135.586C122.663 126.956 119.868 117.979 113.28 115.568ZM116.155 122.603C117.291 126.123 117.122 130.22 115.672 134.183C112.789 142.058 105.714 146.712 99.8826 144.577C94.0507 142.443 91.6586 134.304 94.5345 126.447C97.4104 118.59 104.492 113.918 110.323 116.053L112.774 116.95C118.606 119.084 120.998 127.224 118.123 135.08C115.908 141.13 111.185 145.284 106.49 145.912C110.905 144.404 114.992 140.321 117.053 134.689C118.609 130.439 118.78 125.988 117.55 122.157C117.429 121.788 117.012 121.556 116.636 121.694C116.223 121.799 116.017 122.227 116.155 122.603ZM99.7756 152.462L97.3246 151.565C90.7368 149.154 82.8102 154.196 79.648 162.835C76.489 171.465 79.2844 180.442 85.8722 182.853L88.3233 183.75C94.9111 186.162 102.838 181.119 106 172.48C109.162 163.841 106.364 154.873 99.7756 152.462ZM102.654 159.488C103.79 163.009 103.621 167.106 102.17 171.069C99.2945 178.926 92.2131 183.598 86.3813 181.463C80.5495 179.328 78.1574 171.189 81.0332 163.332C83.9155 155.458 90.9904 150.804 96.8222 152.938L99.2732 153.835C105.105 155.97 107.497 164.109 104.621 171.966C102.407 178.015 97.7102 182.15 92.9985 182.771C97.4138 181.263 101.483 177.174 103.535 171.569C105.1 167.292 105.271 162.841 104.032 159.037C103.911 158.667 103.493 158.435 103.117 158.574C102.722 158.685 102.522 159.095 102.654 159.488ZM86.2809 189.33L83.8299 188.433C77.242 186.021 69.3154 191.064 66.1533 199.703C62.9943 208.333 65.7896 217.31 72.3775 219.721L74.8285 220.618C81.4164 223.029 89.343 217.987 92.5051 209.348C95.6578 200.735 92.8688 191.741 86.2809 189.33ZM89.1594 196.356C90.2953 199.877 90.1262 203.974 88.6755 207.937C85.7997 215.794 78.7184 220.466 72.8866 218.331C67.0547 216.196 64.6626 208.057 67.5385 200.2C70.4207 192.326 77.4957 187.672 83.3275 189.806L85.7785 190.703C91.6103 192.838 94.0024 200.977 91.1265 208.834C88.9124 214.883 84.2155 219.018 79.5037 219.639C83.919 218.131 87.9881 214.042 90.0401 208.436C91.6053 204.16 91.776 199.709 90.5371 195.904C90.4161 195.535 89.9983 195.303 89.6224 195.441C89.2204 195.57 89.021 195.98 89.1594 196.356ZM145.187 127.245L142.736 126.348C136.148 123.937 128.221 128.979 125.059 137.618C121.9 146.248 124.695 155.225 131.283 157.636L133.734 158.533C140.322 160.945 148.249 155.903 151.411 147.264C154.57 138.633 151.775 129.657 145.187 127.245ZM148.062 134.28C149.17 137.741 149.003 141.967 147.578 145.861C144.696 153.735 137.621 158.389 131.789 156.255C125.957 154.12 123.565 145.981 126.441 138.124C129.317 130.267 136.398 125.595 142.23 127.73L144.681 128.627C150.513 130.762 152.905 138.901 150.029 146.758C147.815 152.807 143.109 156.968 138.397 157.589C142.812 156.081 146.899 151.999 148.96 146.367C150.516 142.117 150.704 137.672 149.457 133.835C149.336 133.465 148.918 133.233 148.542 133.372C148.155 133.486 147.95 133.914 148.062 134.28ZM131.682 164.14L129.231 163.242C122.643 160.831 114.717 165.873 111.555 174.512C108.396 183.143 111.191 192.119 117.779 194.531L120.23 195.428C126.818 197.839 134.744 192.797 137.907 184.158C141.069 175.519 138.27 166.551 131.682 164.14ZM134.561 171.166C135.697 174.686 135.528 178.783 134.077 182.747C131.201 190.603 124.12 195.275 118.288 193.141C112.456 191.006 110.064 182.867 112.94 175.01C115.822 167.135 122.897 162.481 128.729 164.616L131.18 165.513C137.012 167.648 139.404 175.787 136.528 183.644C134.314 189.693 129.617 193.828 124.905 194.449C129.32 192.941 133.39 188.852 135.441 183.246C136.997 178.996 137.185 174.551 135.938 170.714C135.817 170.345 135.4 170.113 135.024 170.251C134.654 170.372 134.455 170.782 134.561 171.166ZM118.188 201.007L115.737 200.11C109.149 197.699 101.222 202.741 98.0599 211.38C94.9009 220.011 97.6963 228.987 104.284 231.398L106.735 232.296C113.323 234.707 121.25 229.665 124.412 221.026C127.564 212.413 124.775 203.419 118.188 201.007ZM121.066 208.034C122.202 211.554 122.033 215.651 120.582 219.614C117.706 227.471 110.625 232.143 104.793 230.008C98.9614 227.874 96.5693 219.735 99.4452 211.878C102.327 204.003 109.402 199.349 115.234 201.484L117.685 202.381C123.517 204.515 125.909 212.655 123.033 220.512C120.819 226.561 116.122 230.696 111.41 231.317C115.826 229.809 119.895 225.72 121.947 220.114C123.502 215.864 123.69 211.419 122.444 207.582C122.323 207.212 121.905 206.981 121.529 207.119C121.153 207.257 120.954 207.667 121.066 208.034ZM177.093 138.923L174.642 138.026C168.055 135.614 160.128 140.656 156.966 149.295C153.807 157.926 156.602 166.902 163.19 169.314L165.641 170.211C172.229 172.622 180.155 167.58 183.318 158.941C186.477 150.311 183.681 141.334 177.093 138.923ZM179.969 145.958C181.114 149.452 180.936 153.575 179.485 157.538C176.603 165.413 169.528 170.067 163.67 167.923C157.838 165.788 155.446 157.649 158.322 149.792C161.198 141.935 168.279 137.263 174.111 139.398L176.562 140.295C182.394 142.43 184.812 150.579 181.936 158.436C179.722 164.485 174.998 168.639 170.303 169.267C174.719 167.759 178.805 163.676 180.867 158.044C182.422 153.794 182.593 149.343 181.364 145.512C181.243 145.143 180.825 144.911 180.449 145.049C180.056 145.181 179.856 145.591 179.969 145.958ZM163.589 175.817L161.138 174.92C154.55 172.509 146.623 177.551 143.461 186.19C140.302 194.82 143.098 203.797 149.686 206.208L152.137 207.105C158.724 209.517 166.651 204.474 169.813 195.835C172.975 187.196 170.177 178.228 163.589 175.817ZM166.467 182.843C167.613 186.338 167.434 190.461 165.984 194.424C163.108 202.281 156.026 206.953 150.169 204.809C144.337 202.674 141.945 194.535 144.821 186.678C147.703 178.803 154.778 174.149 160.609 176.284L163.06 177.181C168.892 179.316 171.31 187.464 168.435 195.321C166.22 201.37 161.524 205.505 156.812 206.126C161.227 204.618 165.314 200.536 167.365 194.93C168.931 190.654 169.101 186.203 167.862 182.398C167.741 182.028 167.324 181.797 166.948 181.935C166.561 182.05 166.362 182.46 166.467 182.843ZM150.094 212.685L147.643 211.788C141.055 209.377 133.129 214.419 129.967 223.058C126.808 231.688 129.603 240.665 136.191 243.076L138.642 243.973C145.23 246.385 153.156 241.342 156.318 232.703C159.471 224.09 156.682 215.096 150.094 212.685ZM152.973 219.711C154.109 223.232 153.94 227.329 152.489 231.292C149.613 239.149 142.532 243.821 136.674 241.676C130.842 239.542 128.45 231.403 131.326 223.546C134.208 215.671 141.283 211.017 147.115 213.152L149.566 214.049C155.398 216.183 157.816 224.332 154.94 232.189C152.726 238.238 148.029 242.373 143.317 242.994C147.732 241.486 151.819 237.404 153.871 231.798C155.436 227.522 155.607 223.07 154.368 219.266C154.247 218.896 153.829 218.665 153.453 218.803C153.06 218.935 152.86 219.345 152.973 219.711Z" fill="black"/>
</g>
<defs>
<clipPath id="clip0_417_1329">
<rect width="236.931" height="236.931" fill="white" transform="translate(82.0039 0.978027) rotate(20.1041)"/>
</clipPath>
</defs>
</svg>
